<?xml version="1.0" encoding="UTF-8"?>
<svg xmlns="http://www.w3.org/2000/svg" viewBox="0 0 108 108" version="1.1">
  <defs>
    <radialGradient id="gradientLongShadow" r="54" cx="54" cy="54" gradientUnits="userSpaceOnUse">
      <stop stop-color="#1a237e" stop-opacity="0.2" offset="0.5"/>
      <stop stop-color="#1a237e" stop-opacity="0" offset="1"/>
    </radialGradient>
    
    <radialGradient id="gradientFinish" gradientUnits="userSpaceOnUse" cy="0" cx="0" r="108">
    <stop stop-color="#fff" stop-opacity="0.1" offset="0"/>
    <stop stop-color="#fff" stop-opacity="0" offset="1"/>
    </radialGradient>
    <filter id="blurShadow" color-interpolation-filters="linearRGB">
      <feGaussianBlur stdDeviation="1.0"/>
    </filter>
  </defs>
  <path filter="url(#blurShadow)" fill-opacity="0.2" fill="#263238" d="M99 100.5 v-78 a 4,4 0 0,0 -4,-4 h-82 a 4,4 0 0,0 -4,4 v56.5 a 4,4 0 0,0 4,4 h68 Z" />
  <path fill="#0a70c0" d="M99 99.5 v-78 a 4,4 0 0,0 -4,-4 h-82 a 4,4 0 0,0 -4,4 v56.5 a 4,4 0 0,0 4,4 h68 Z" />
  <path fill-opacity=".2" fill="#263238" d="M9 78 a 4,4 0 0,0 4,4 h68 l18,17.5 v-1 l -18,-17.5 h-68 a 4,4 0 0,1 -4,-4 Z" />
  <path fill-opacity=".2" fill="#ffffff" d="M99 21.5 a 4,4 0 0,0 -4,-4 h-82 a 4,4 0 0,0 -4,4 v1 a 4,4 0 0,1 4,-4 h82 a 4,4 0 0,1 4,4 Z" />
  <path fill="url(#gradientLongShadow)" d="M34.91 68.09 A 27,27 0 0,1 73.09,29.91 L 99,55.82 99,99.5 81,82 48.82,82" />
  <path filter="url(#blurShadow)" fill-opacity="0.2" fill="#263238" d="M27 50a 27,27 0 1,0 54,0 h-7 a20,20 0 0,1 -40,0 a20,20 0 0,1 40,0 h7 a 27,27 0 1,0 -54,0 M57.34 58.84 a 5.5,5.5 0 1,0 11,0 a 5.5,5.5 0 1,0 -11,0" />
  <path fill="#ffffff" d="M27 49a 27,27 0 1,0 54,0 h-7 a20,20 0 0,1 -40,0 a20,20 0 0,1 40,0 h7 a 27,27 0 1,0 -54,0 M57.34 57.84 a 5.5,5.5 0 1,0 11,0 a 5.5,5.5 0 1,0 -11,0" />
  <path fill="#e5e5e5" d="M34 48.5 v0.5 a 20,20 0 0,1 40,0 v-0.5 a 20,20 0 1,0 -40,0 M27 48.5 v0.5 a 27,27 0 1,0 54,0 v-0.5 a 27,27 0 0,1 -54,0 M57.34 57.34 v0.5 a 5.5,5.5 0 1,0 11,0 v-0.5 a 5.5,5.5 0 0,1 -11,0" />
  <path fill="url(#gradientFinish)" d="M99 99.5 v-78 a 4,4 0 0,0 -4,-4 h-82 a 4,4 0 0,0 -4,4 v56.5 a 4,4 0 0,0 4,4 h68 Z" />
</svg>
