<?xml version="1.0" encoding="UTF-8"?>
<svg xmlns="http://www.w3.org/2000/svg" viewBox="0 0 76 76" version="1.1">
  <defs>
    <linearGradient id="gradientBackground" x1="0" y1="7" x2="0" y2="69" gradientUnits="userSpaceOnUse">
      <stop stop-color="#2883f2" offset="0"/>
      <stop stop-color="#0b50a5" offset="1"/>
    </linearGradient>
    <radialGradient id="gradientLongShadow" r="38" cx="38" cy="38" gradientUnits="userSpaceOnUse">
      <stop stop-color="#1a237e" stop-opacity="0.2" offset="0.71"/>
      <stop stop-color="#1a237e" stop-opacity="0" offset="1"/>
    </radialGradient>
    <filter id="blurShadow" color-interpolation-filters="linearRGB">
      <feGaussianBlur stdDeviation="2.0"/>
    </filter>
    <filter id="blurBackShadow" color-interpolation-filters="linearRGB">
      <feGaussianBlur stdDeviation="0.7"/>
    </filter>
  </defs>
  <path d="m28.74 8.1641h18.51c6.14 0 9.209 0 12.51 1.045 3.608 1.313 6.45 4.155 7.763 7.763 1.045 3.304 1.045 6.375 1.045 12.51v18.51c0 6.14 0 9.209-1.045 12.51-1.313 3.608-4.155 6.45-7.763 7.763-3.305 1.045-6.374 1.045-12.51 1.045h-18.51c-6.14 0-9.209 0-12.51-1.045-3.608-1.313-6.45-4.155-7.763-7.763-1.045-3.305-1.045-6.374-1.045-12.51v-18.51c0-6.139 0-9.209 1.045-12.51 1.313-3.608 4.155-6.45 7.763-7.763 3.304-1.045 6.374-1.045 12.51-1.045" fill="#292929" fill-opacity=".51" filter="url(#blurBackShadow)"/>
  <path d="m28.74 7.422h18.51c6.14 0 9.209 0 12.51 1.045 3.608 1.313 6.45 4.155 7.763 7.763 1.045 3.304 1.045 6.375 1.045 12.51v18.51c0 6.14 0 9.209-1.045 12.51-1.313 3.608-4.155 6.45-7.763 7.763-3.305 1.045-6.374 1.045-12.51 1.045h-18.51c-6.14 0-9.209 0-12.51-1.045-3.608-1.313-6.45-4.155-7.763-7.763-1.045-3.305-1.045-6.374-1.045-12.51v-18.51c0-6.139 0-9.209 1.045-12.51 1.313-3.608 4.155-6.45 7.763-7.763 3.304-1.045 6.374-1.045 12.51-1.045" fill="url(#gradientBackground)"/>
  <path d="m47.26 68.58c6.14 0 9.209 3.4e-4 12.51-1.045 3.608-1.313 6.45-4.155 7.764-7.764 1.045-3.305 1.045-6.374 1.045-12.51v-8.303l-16.28-16.28c-4.106-3.993-9.437-5.967-14.75-5.93-5.315 0.03738-10.62 2.087-14.67 6.137-8.1 8.1-8.193 21.2-0.207 29.42l17.05 16.28z" fill="url(#gradientLongShadow)"/>
  <path d="m16.54 37.49a20.95 20.95 0 1 0 41.9 0h-5.432a15.52 15.52 0 0 1-31.04 0 15.52 15.52 0 0 1 31.04 0h5.432a20.95 20.95 0 1 0-41.9 0m23.54 6.859a4.268 4.268 0 1 0 8.535 0 4.268 4.268 0 1 0-8.535 0" fill="#263238" fill-opacity=".2" filter="url(#blurShadow)"/>
  <path d="m16.54 37.49a20.95 20.95 0 1 0 41.9 0h-5.432a15.52 15.52 0 0 1-31.04 0 15.52 15.52 0 0 1 31.04 0h5.432a20.95 20.95 0 1 0-41.9 0m23.54 6.859a4.268 4.268 0 1 0 8.535 0 4.268 4.268 0 1 0-8.535 0" fill="#fff"/>
  <path d="m21.97 37.1v0.388a15.52 15.52 0 0 1 31.04 0v-0.388a15.52 15.52 0 1 0-31.04 0m-5.432 0v0.388a20.95 20.95 0 1 0 41.9 0v-0.388a20.95 20.95 0 0 1-41.9 0m23.54 6.859v0.388a4.268 4.268 0 1 0 8.535 0v-0.388a4.268 4.268 0 0 1-8.535 0" fill="#e5e5e5"/>
</svg>
