<?xml version="1.0" encoding="UTF-8" standalone="no"?>
<svg id="ic_launcher" xmlns:rdf="http://www.w3.org/1999/02/22-rdf-syntax-ns#" xmlns="http://www.w3.org/2000/svg" height="108" viewBox="0 0 108 108" width="108" version="1.1" xmlns:cc="http://creativecommons.org/ns#" xmlns:dc="http://purl.org/dc/elements/1.1/">
 <defs>
  <linearGradient id="gradientBackground" x2="0" gradientUnits="userSpaceOnUse" y2="108">
   <stop id="gradientBackgroundStart" stop-color="#0a70c0" offset="0"/>
   <stop id="gradientBackgroundEnd" stop-color="#0a70c0" offset="1"/>
  </linearGradient>
  <linearGradient id="gradientLongShadow" y2="108" gradientUnits="userSpaceOnUse" y1="35.615" gradientTransform="translate(0,-5)" x2="108" x1="35.615">
   <stop stop-color="#1a237e" stop-opacity=".2" offset="0"/>
   <stop stop-opacity="0" offset="1"/>
  </linearGradient>
  <radialGradient id="gradientFinish" gradientUnits="userSpaceOnUse" cy="0" cx="0" r="108">
   <stop stop-color="#fff" stop-opacity=".1" offset="0"/>
   <stop stop-color="#fff" stop-opacity="0" offset="1"/>
  </radialGradient>
  <filter id="blurDropShadow" style="color-interpolation-filters:sRGB" height="1.048" width="1.048" y="-.024" x="-.024">
   <feGaussianBlur stdDeviation="0.54"/>
  </filter>
  <filter id="blurMessageShadow" style="color-interpolation-filters:sRGB" height="1.048" width="1.048" y="-.024" x="-.024">
   <feGaussianBlur stdDeviation="0.84"/>
  </filter>
  <filter id="b" style="color-interpolation-filters:sRGB" height="1.0503" width="1.0459" y="-.025151" x="-.02295">
   <feGaussianBlur stdDeviation="0.86062512"/>
  </filter>
  <filter id="a" style="color-interpolation-filters:sRGB" height="1.0503" width="1.0459" y="-.025151" x="-.02295">
   <feGaussianBlur stdDeviation="0.86062511"/>
  </filter>
 </defs>
 <path opacity=".24" d="m13.5 18.437a4.5 4.5 0 0 0 -.31836 .01172 4.5 4.5 0 0 0 -.44531 .05469 4.5 4.5 0 0 0 -.43945 .09766 4.5 4.5 0 0 0 -.002 0 4.5 4.5 0 0 0 -.42578 .14063 4.5 4.5 0 0 0 -.41016 .18555 4.5 4.5 0 0 0 -.39062 .22266 4.5 4.5 0 0 0 -.36523 .26172 4.5 4.5 0 0 0 -.33789 .29688 4.5 4.5 0 0 0 -.30664 .33008 4.5 4.5 0 0 0 -.27344 .35742 4.5 4.5 0 0 0 -.23438 .38281 4.5 4.5 0 0 0 -.19531 .40625 4.5 4.5 0 0 0 -.15430 .42188 4.5 4.5 0 0 0 -.11133 .43555 4.5 4.5 0 0 0 -.068359 .44531 4.5 4.5 0 0 0 -.0215 .449v.5625 53.438.5625.5625a4.5 4.5 0 0 0 .011719 .31836 4.5 4.5 0 0 0 .054687 .44531 4.5 4.5 0 0 0 .097656 .43945 4.5 4.5 0 0 0 .14062 .42773 4.5 4.5 0 0 0 .18555 .41016 4.5 4.5 0 0 0 .22266 .39062 4.5 4.5 0 0 0 .26172 .36523 4.5 4.5 0 0 0 .29687 .33789 4.5 4.5 0 0 0 .33008 .30664 4.5 4.5 0 0 0 .35742 .27344 4.5 4.5 0 0 0 .38281 .23438 4.5 4.5 0 0 0 .40625 .19531 4.5 4.5 0 0 0 .42188 .15430 4.5 4.5 0 0 0 .43555 .11133 4.5 4.5 0 0 0 .44531 .06836 4.5 4.5 0 0 0 .449 .023h67.5l18 18v-.5625-.5625-75.375-.5625-.5625a4.5 4.5 0 0 0 -.01172 -.31836 4.5 4.5 0 0 0 -.05469 -.44727 4.5 4.5 0 0 0 -.09766 -.4375 4.5 4.5 0 0 0 0 -.002 4.5 4.5 0 0 0 -.14063 -.42578 4.5 4.5 0 0 0 -.18555 -.41016 4.5 4.5 0 0 0 -.22266 -.39062 4.5 4.5 0 0 0 -.26172 -.36523 4.5 4.5 0 0 0 -.29688 -.33789 4.5 4.5 0 0 0 -.33008 -.30664 4.5 4.5 0 0 0 -.35742 -.27344 4.5 4.5 0 0 0 -.38281 -.23438 4.5 4.5 0 0 0 -.40625 -.19531 4.5 4.5 0 0 0 -.42188 -.15430 4.5 4.5 0 0 0 -.43555 -.11133 4.5 4.5 0 0 0 -.44531 -.06836 4.5 4.5 0 0 0 -.449 -.023h-81z" filter="url(#b)" fill="#1b2327"/>
 <path opacity=".12" d="m13.5 17.438a4.5 4.5 0 0 0 -.318 .011 4.5 4.5 0 0 0 -.446 .055 4.5 4.5 0 0 0 -.439 .098 4.5 4.5 0 0 0 -.002 0 4.5 4.5 0 0 0 -.426 .140 4.5 4.5 0 0 0 -.410 .186 4.5 4.5 0 0 0 -.391 .222 4.5 4.5 0 0 0 -.365 .262 4.5 4.5 0 0 0 -.338 .297 4.5 4.5 0 0 0 -.306 .330 4.5 4.5 0 0 0 -.2738 .357 4.5 4.5 0 0 0 -.2344 .383 4.5 4.5 0 0 0 -.1953 .407 4.5 4.5 0 0 0 -.1543 .421 4.5 4.5 0 0 0 -.1114 .436 4.5 4.5 0 0 0 -.0683 .445 4.5 4.5 0 0 0 -.0215 .450v.562 53.438.562.562a4.5 4.5 0 0 0 .0117 .319 4.5 4.5 0 0 0 .0547 .445 4.5 4.5 0 0 0 .0977 .440 4.5 4.5 0 0 0 .1406 .427 4.5 4.5 0 0 0 .1855 .411 4.5 4.5 0 0 0 .2227 .390 4.5 4.5 0 0 0 .2617 .365 4.5 4.5 0 0 0 .2964 .338 4.5 4.5 0 0 0 .331 .307 4.5 4.5 0 0 0 .357 .273 4.5 4.5 0 0 0 .383 .235 4.5 4.5 0 0 0 .406 .195 4.5 4.5 0 0 0 .422 .154 4.5 4.5 0 0 0 .435 .112 4.5 4.5 0 0 0 .446 .068 4.5 4.5 0 0 0 .449 .021h67.5l18 18v-.562-.562-75.376-.562-.562a4.5 4.5 0 0 0 -.012 -.319 4.5 4.5 0 0 0 -.054 -.447 4.5 4.5 0 0 0 -.098 -.438 4.5 4.5 0 0 0 0 -.002 4.5 4.5 0 0 0 -.141 -.425 4.5 4.5 0 0 0 -.185 -.411 4.5 4.5 0 0 0 -.223 -.390 4.5 4.5 0 0 0 -.262 -.365 4.5 4.5 0 0 0 -.296 -.338 4.5 4.5 0 0 0 -.331 -.307 4.5 4.5 0 0 0 -.357 -.273 4.5 4.5 0 0 0 -.383 -.235 4.5 4.5 0 0 0 -.406 -.195 4.5 4.5 0 0 0 -.422 -.154 4.5 4.5 0 0 0 -.435 -.112 4.5 4.5 0 0 0 -.446 -.068 4.5 4.5 0 0 0 -.449 -.021h-81z" filter="url(#a)" fill="#1b2327"/>
 <path d="m13.5 17.437a4.5 4.5 0 0 0 -.31860 .01099 4.5 4.5 0 0 0 -.44604 .05493 4.5 4.5 0 0 0 -.43945 .09778 4.5 4.5 0 0 0 -.42627 .14172 4.5 4.5 0 0 0 -.41089 .18457 4.5 4.5 0 0 0 -.39002 .22302 4.5 4.5 0 0 0 -.36584 .26257 4.5 4.5 0 0 0 -.33838 .29663 4.5 4.5 0 0 0 -.30652 .32849 4.5 4.5 0 0 0 -.27246 .35815 4.5 4.5 0 0 0 -.23511 .38342 4.5 4.5 0 0 0 -.19556 .40540 4.5 4.5 0 0 0 -.15381 .42297 4.5 4.5 0 0 0 -.11096 .43506 4.5 4.5 0 0 0 -.068115 .44495 4.5 4.5 0 0 0 -.0219 .449v.5625 53.438.5625.5625a4.5 4.5 0 0 0 .010986 .31861 4.5 4.5 0 0 0 .054934 .44604 4.5 4.5 0 0 0 .097778 .43945 4.5 4.5 0 0 0 .14172 .42627 4.5 4.5 0 0 0 .18457 .41089 4.5 4.5 0 0 0 .22302 .39002 4.5 4.5 0 0 0 .26147 .36584 4.5 4.5 0 0 0 .29773 .33838 4.5 4.5 0 0 0 .32849 .30652 4.5 4.5 0 0 0 .35816 .27246 4.5 4.5 0 0 0 .38342 .23510 4.5 4.5 0 0 0 .40540 .19556 4.5 4.5 0 0 0 .42297 .15381 4.5 4.5 0 0 0 .43506 .11096 4.5 4.5 0 0 0 .44495 .06812 4.5 4.5 0 0 0 .44934 .02197h67.5l18 18v-.5625-.5625-75.375-.5625-.5625a4.5 4.5 0 0 0 -.01097 -.31860 4.5 4.5 0 0 0 -.05496 -.44604 4.5 4.5 0 0 0 -.09778 -.43945 4.5 4.5 0 0 0 -.14172 -.42627 4.5 4.5 0 0 0 -.18457 -.41089 4.5 4.5 0 0 0 -.22302 -.39002 4.5 4.5 0 0 0 -.26147 -.36584 4.5 4.5 0 0 0 -.29773 -.33838 4.5 4.5 0 0 0 -.32849 -.30652 4.5 4.5 0 0 0 -.35816 -.27246 4.5 4.5 0 0 0 -.38342 -.23511 4.5 4.5 0 0 0 -.4054 -.19556 4.5 4.5 0 0 0 -.42297 -.15381 4.5 4.5 0 0 0 -.43506 -.11096 4.5 4.5 0 0 0 -.44494 -.06812 4.5 4.5 0 0 0 -.449 -.022h-81z" fill-rule="evenodd" fill="#488ce1"/>
 <g id="backShadowMessage" display="none">
  <path opacity=".12" filter="url(#blurMessageShadow)" d="m12 23v62h42l23.1 22v-22h18.9v-62z"/>
  <path opacity=".24" filter="url(#blurMessageShadow)" d="m12 24v62h42l23.1 22v-22h18.9v-62z"/>
 </g>
 <path fill="url(#gradientBackground)" d="m13.5 17.438a4.5 4.5 0 0 0 -.318 .011 4.5 4.5 0 0 0 -.446 .055 4.5 4.5 0 0 0 -.439 .098 4.5 4.5 0 0 0 -.002 0 4.5 4.5 0 0 0 -.426 .140 4.5 4.5 0 0 0 -.410 .186 4.5 4.5 0 0 0 -.391 .222 4.5 4.5 0 0 0 -.365 .262 4.5 4.5 0 0 0 -.338 .297 4.5 4.5 0 0 0 -.306 .330 4.5 4.5 0 0 0 -.2738 .357 4.5 4.5 0 0 0 -.2344 .383 4.5 4.5 0 0 0 -.1953 .407 4.5 4.5 0 0 0 -.1543 .421 4.5 4.5 0 0 0 -.1114 .436 4.5 4.5 0 0 0 -.0683 .445 4.5 4.5 0 0 0 -.0215 .450v.562 53.438.562.562a4.5 4.5 0 0 0 .0117 .319 4.5 4.5 0 0 0 .0547 .445 4.5 4.5 0 0 0 .0977 .440 4.5 4.5 0 0 0 .1406 .427 4.5 4.5 0 0 0 .1855 .411 4.5 4.5 0 0 0 .2227 .390 4.5 4.5 0 0 0 .2617 .365 4.5 4.5 0 0 0 .2964 .338 4.5 4.5 0 0 0 .331 .307 4.5 4.5 0 0 0 .357 .273 4.5 4.5 0 0 0 .383 .235 4.5 4.5 0 0 0 .406 .195 4.5 4.5 0 0 0 .422 .154 4.5 4.5 0 0 0 .435 .112 4.5 4.5 0 0 0 .446 .068 4.5 4.5 0 0 0 .449 .021h67.5l18 18v-.562-.562-75.376-.562-.562a4.5 4.5 0 0 0 -.012 -.319 4.5 4.5 0 0 0 -.054 -.447 4.5 4.5 0 0 0 -.098 -.438 4.5 4.5 0 0 0 0 -.002 4.5 4.5 0 0 0 -.141 -.425 4.5 4.5 0 0 0 -.185 -.411 4.5 4.5 0 0 0 -.223 -.390 4.5 4.5 0 0 0 -.262 -.365 4.5 4.5 0 0 0 -.296 -.338 4.5 4.5 0 0 0 -.331 -.307 4.5 4.5 0 0 0 -.357 -.273 4.5 4.5 0 0 0 -.383 -.235 4.5 4.5 0 0 0 -.406 -.195 4.5 4.5 0 0 0 -.422 -.154 4.5 4.5 0 0 0 -.435 -.112 4.5 4.5 0 0 0 -.446 -.068 4.5 4.5 0 0 0 -.449 -.021h-81z"/>
 <path fill="url(#gradientFinish)" d="m13.5 17.438a4.5 4.5 0 0 0 -.318 .011 4.5 4.5 0 0 0 -.446 .055 4.5 4.5 0 0 0 -.439 .098 4.5 4.5 0 0 0 -.002 0 4.5 4.5 0 0 0 -.426 .140 4.5 4.5 0 0 0 -.410 .186 4.5 4.5 0 0 0 -.391 .222 4.5 4.5 0 0 0 -.365 .262 4.5 4.5 0 0 0 -.338 .297 4.5 4.5 0 0 0 -.306 .330 4.5 4.5 0 0 0 -.2738 .357 4.5 4.5 0 0 0 -.2344 .383 4.5 4.5 0 0 0 -.1953 .407 4.5 4.5 0 0 0 -.1543 .421 4.5 4.5 0 0 0 -.1114 .436 4.5 4.5 0 0 0 -.0683 .445 4.5 4.5 0 0 0 -.0215 .450v.562 53.438.562.562a4.5 4.5 0 0 0 .0117 .319 4.5 4.5 0 0 0 .0547 .445 4.5 4.5 0 0 0 .0977 .440 4.5 4.5 0 0 0 .1406 .427 4.5 4.5 0 0 0 .1855 .411 4.5 4.5 0 0 0 .2227 .390 4.5 4.5 0 0 0 .2617 .365 4.5 4.5 0 0 0 .2964 .338 4.5 4.5 0 0 0 .331 .307 4.5 4.5 0 0 0 .357 .273 4.5 4.5 0 0 0 .383 .235 4.5 4.5 0 0 0 .406 .195 4.5 4.5 0 0 0 .422 .154 4.5 4.5 0 0 0 .435 .112 4.5 4.5 0 0 0 .446 .068 4.5 4.5 0 0 0 .449 .021h67.5l18 18v-.562-.562-75.376-.562-.562a4.5 4.5 0 0 0 -.012 -.319 4.5 4.5 0 0 0 -.054 -.447 4.5 4.5 0 0 0 -.098 -.438 4.5 4.5 0 0 0 0 -.002 4.5 4.5 0 0 0 -.141 -.425 4.5 4.5 0 0 0 -.185 -.411 4.5 4.5 0 0 0 -.223 -.390 4.5 4.5 0 0 0 -.262 -.365 4.5 4.5 0 0 0 -.296 -.338 4.5 4.5 0 0 0 -.331 -.307 4.5 4.5 0 0 0 -.357 -.273 4.5 4.5 0 0 0 -.383 -.235 4.5 4.5 0 0 0 -.406 -.195 4.5 4.5 0 0 0 -.422 -.154 4.5 4.5 0 0 0 -.435 -.112 4.5 4.5 0 0 0 -.446 -.068 4.5 4.5 0 0 0 -.449 -.021h-81z"/>
 <path id="layerLongShadow" fill="url(#gradientLongShadow)" d="m49.793 81.562h31.207l18 18v-.562-.562-41.208l-26.615-26.615-1.69-1.541c-4.517-3.788-10.338-6.074-16.695-6.074-14.359 0-26 11.641-26 26 0 6.357 2.286 12.178 6.074 16.695l1.541 1.69 14.178 14.177z"/>
 <path id="layerDropShadow" d="m28 49c0-14.912 12.088-27 27-27s27 12.088 27 27-12.088 27-27 27-27-12.088-27-27zm6.75 0c0 .676.032 1.353.102 2.023.065.67.168 1.336.303 2.001.13.66.298 1.314.497 1.958.201.649.433 1.282.698 1.904.26.623.552 1.228.876 1.824.324.594.676 1.167 1.061 1.725.378.557.789 1.092 1.221 1.612.439.514.899 1.011 1.38 1.482.486.471.994.914 1.524 1.336.525.417 1.077.811 1.645 1.174.568.367 1.152.702 1.757 1.011.601.303 1.217.579 1.844.822.633.249 1.271.46 1.92.644.655.179 1.314.324 1.98.443.665.114 1.335.195 2.006.244.479.03.96.047 1.436.047.676 0 1.353-.032 2.023-.102.67-.065 1.342-.168 2.001-.303.66-.13 1.314-.298 1.958-.497.649-.201 1.282-.433 1.904-.698.623-.26 1.234-.552 1.824-.876.594-.324 1.167-.676 1.725-1.061.557-.378 1.098-.789 1.612-1.221.514-.439 1.011-.899 1.482-1.38.471-.486.914-.994 1.336-1.524.417-.525.811-1.077 1.18-1.645.361-.568.696-1.152 1.005-1.757.303-.601.579-1.217.828-1.844.244-.633.454-1.271.638-1.92.179-.655.324-1.314.443-1.98.114-.665.195-1.335.244-2.006.03-.479.047-.96.047-1.436 0-.676-.032-1.353-.102-2.023-.065-.67-.168-1.342-.298-2.001-.136-.66-.303-1.314-.503-1.958-.201-.649-.433-1.282-.692-1.904-.266-.623-.558-1.234-.882-1.824-.324-.594-.676-1.167-1.061-1.725-.378-.557-.789-1.092-1.221-1.612-.439-.514-.899-1.011-1.38-1.482-.486-.471-.994-.914-1.519-1.336-.53-.417-1.083-.811-1.65-1.18-.568-.361-1.152-.696-1.752-1.005-.607-.302-1.223-.577-1.85-.826-.627-.244-1.271-.455-1.921-.639-.649-.178-1.308-.324-1.974-.443-.665-.113-1.336-.195-2.012-.244-.476-.031-.951-.048-1.433-.048-.676 0-1.347.032-2.023.102-.67.065-1.336.168-2.001.303-.66.13-1.314.298-1.958.497-.649.201-1.282.433-1.904.698-.623.26-1.228.552-1.824.876-.59.324-1.167.676-1.725 1.061-.557.378-1.092.789-1.612 1.221-.514.439-1.011.899-1.482 1.38-.471.486-.914.994-1.336 1.524-.417.525-.811 1.077-1.174 1.645-.367.568-.702 1.152-1.011 1.757-.303.601-.579 1.217-.822 1.844-.249.633-.46 1.271-.638 1.92-.184.655-.33 1.314-.443 1.98-.118.667-.2 1.337-.243 2.009-.037.476-.054.957-.054 1.433zm23.626 9c0-3.104 2.52-5.624 5.624-5.624s5.624 2.52 5.624 5.624-2.52 5.624-5.624 5.624-5.624-2.52-5.624-5.624z" fill-opacity=".2" filter="url(#blurDropShadow)" fill="#263238"/>
 <path id="layerForegroundIcon" fill="#fff" d="m27 49c0-14.912 12.088-27 27-27s27 12.088 27 27-12.088 27-27 27-27-12.088-27-27zm6.75 0c0 .676.032 1.353.102 2.023.065.67.168 1.336.303 2.001.13.66.298 1.314.497 1.958.201.649.433 1.282.698 1.904.26.623.552 1.228.876 1.824.324.594.676 1.167 1.061 1.725.378.557.789 1.092 1.221 1.612.439.514.899 1.011 1.38 1.482.486.471.994.914 1.524 1.336.525.417 1.077.811 1.645 1.174.568.367 1.152.702 1.757 1.011.601.303 1.217.579 1.844.822.633.249 1.271.46 1.92.644.655.179 1.314.324 1.98.443.665.114 1.335.195 2.006.244.479.03.96.047 1.436.047.676 0 1.353-.032 2.023-.102.67-.065 1.342-.168 2.001-.303.66-.13 1.314-.298 1.958-.497.649-.201 1.282-.433 1.904-.698.623-.26 1.234-.552 1.824-.876.594-.324 1.167-.676 1.725-1.061.557-.378 1.098-.789 1.612-1.221.514-.439 1.011-.899 1.482-1.38.471-.486.914-.994 1.336-1.524.417-.525.811-1.077 1.18-1.645.361-.568.696-1.152 1.005-1.757.303-.601.579-1.217.828-1.844.244-.633.454-1.271.638-1.92.179-.655.324-1.314.443-1.98.114-.665.195-1.335.244-2.006.03-.479.047-.96.047-1.436 0-.676-.032-1.353-.102-2.023-.065-.670-.168-1.342-.298-2.001-.136-.660-.303-1.314-.503-1.958-.201-.649-.433-1.282-.692-1.904-.266-.623-.558-1.234-.882-1.824-.324-.594-.676-1.167-1.061-1.725-.378-.557-.789-1.092-1.221-1.612-.439-.514-.899-1.011-1.38-1.482-.486-.471-.994-.914-1.519-1.336-.530-.417-1.083-.811-1.65-1.18-.568-.361-1.152-.696-1.752-1.005-.607-.302-1.223-.577-1.85-.826-.627-.244-1.271-.455-1.921-.639-.649-.178-1.308-.324-1.974-.443-.665-.113-1.336-.195-2.012-.244-.476-.031-.951-.048-1.433-.048-.676 0-1.347.032-2.023.102-.67.065-1.336.168-2.001.303-.66.13-1.314.298-1.958.497-.649.201-1.282.433-1.904.698-.623.26-1.228.552-1.824.876-.59.324-1.167.676-1.725 1.061-.557.378-1.092.789-1.612 1.221-.514.439-1.011.899-1.482 1.38-.471.486-.914.994-1.336 1.524-.417.525-.811 1.077-1.174 1.645-.367.568-.702 1.152-1.011 1.757-.303.601-.579 1.217-.822 1.844-.249.633-.46 1.271-.638 1.92-.184.655-.33 1.314-.443 1.98-.118.667-.2 1.337-.243 2.009-.037.476-.054.957-.054 1.433zm23.626 9c0-3.104 2.52-5.624 5.624-5.624s5.624 2.52 5.624 5.624-2.52 5.624-5.624 5.624-5.624-2.52-5.624-5.624z"/>
 <path id="layerForegroundShade" fill-opacity=".1" fill="#212121" d="m54 28.231c-.476 0-.957.017-1.433.048-.672.048-1.342.13-2.006.244-.666.119-1.325.264-1.98.449-.649.179-1.288.389-1.92.638-.627.244-1.243.519-1.844.822-.605.307-1.189.644-1.757 1.011-.568.363-1.12.757-1.645 1.18-.53.417-1.038.86-1.52 1.331-.486.471-.946.968-1.379 1.482-.438.519-.843 1.055-1.227 1.612-.385.558-.737 1.131-1.061 1.725-.324.595-.616 1.2-.876 1.824-.264.622-.497 1.254-.698 1.904-.199.644-.367 1.297-.497 1.958-.136.665-.238 1.331-.303 2.006-.071.67-.102 1.342-.102 2.017.006.102.006.201.011.303.006-.601.032-1.206.091-1.807.065-.67.168-1.336.303-2.001.136-.66.298-1.314.497-1.958.201-.649.433-1.282.698-1.904.26-.623.558-1.228.876-1.824.324-.594.681-1.167 1.061-1.725.384-.557.789-1.098 1.227-1.612.433-.519.893-1.011 1.379-1.482.482-.471.99-.914 1.52-1.336.53-.417 1.077-.811 1.645-1.18.568-.361 1.158-.696 1.757-1.005.601-.309 1.217-.579 1.844-.828.633-.244 1.271-.454 1.926-.638.649-.179 1.308-.33 1.974-.443.665-.114 1.335-.195 2.006-.244.48-.032.957-.048 1.433-.048.676 0 1.353.032 2.023.102.67.065 1.342.168 2.001.303.666.13 1.314.298 1.963.497.644.201 1.277.433 1.898.692.623.266 1.234.558 1.824.882.594.324 1.167.676 1.725 1.061.557.378 1.098.789 1.612 1.221.519.439 1.011.899 1.482 1.38.471.486.919.994 1.336 1.519.422.53.811 1.083 1.18 1.65.361.568.696 1.152 1.005 1.757.309.601.584 1.217.828 1.844.244.633.454 1.271.638 1.92.179.655.33 1.314.443 1.98.114.665.195 1.335.244 2.006.021.378.037.752.037 1.13.006-.075.011-.145.011-.216 0-.476-.017-.957-.048-1.433-.048-.672-.13-1.342-.244-2.006-.114-.666-.264-1.325-.443-1.98-.184-.649-.395-1.288-.638-1.92-.249-.627-.525-1.243-.828-1.844-.309-.605-.644-1.189-1.005-1.757-.368-.569-.757-1.12-1.18-1.65-.422-.525-.865-1.033-1.336-1.513-.471-.487-.962-.947-1.482-1.385-.514-.433-1.055-.845-1.612-1.223-.558-.385-1.131-.737-1.725-1.061-.590-.318-1.2-.616-1.824-.876-.622-.264-1.254-.497-1.904-.698-.644-.199-1.297-.361-1.958-.497-.659-.136-1.331-.238-2.001-.303-.670-.071-1.347-.102-2.023-.102zm-26.989 20.466c-.005.098-.005.201-.011.303 0 14.912 12.088 27 27 27s27-12.088 27-27c-.005-.071-.005-.141-.011-.21 0 .534-.021 1.065-.054 1.601-.065.897-.173 1.796-.33 2.682-.152.888-.346 1.764-.59 2.629-.238.871-.525 1.725-.849 2.563-.33.839-.698 1.662-1.104 2.462-.406.806-.854 1.584-1.342 2.341-.486.757-1.011 1.493-1.569 2.196-.562.709-1.158 1.385-1.785 2.028-.627.649-1.286 1.26-1.974 1.839-.687.579-1.405 1.126-2.146 1.634-.746.508-1.515.979-2.304 1.411-.791.433-1.602.822-2.429 1.174-.828.352-1.677.659-2.537.925-.86.264-1.731.486-2.613.67-.882.179-1.774.314-2.672.4-.892.093-1.796.136-2.693.136-.638 0-1.277-.022-1.909-.065-.897-.065-1.796-.173-2.682-.33-.886-.152-1.762-.346-2.628-.590-.871-.238-1.725-.524-2.563-.848-.839-.331-1.661-.698-2.462-1.104-.806-.406-1.584-.854-2.341-1.342-.757-.486-1.493-1.011-2.196-1.569-.709-.562-1.385-1.158-2.028-1.785-.649-.627-1.26-1.286-1.839-1.973-.584-.688-1.126-1.407-1.634-2.148-.508-.746-.979-1.515-1.411-2.304-.433-.791-.822-1.602-1.174-2.429-.352-.828-.66-1.677-.925-2.537-.264-.86-.486-1.731-.67-2.613-.179-.882-.314-1.774-.4-2.672-.082-.821-.125-1.649-.125-2.477zm30.374 9c-.005.098-.01.201-.01.303 0 3.104 2.514 5.624 5.624 5.624 3.104 0 5.624-2.52 5.624-5.624 0-.071-.004-.145-.01-.216v.097c-.017.184-.039.374-.071.557-.033.184-.076.368-.125.547-.048.184-.108.357-.179.536-.065.173-.14.346-.227.514-.086.168-.179.33-.281.486-.102.158-.21.309-.324.454-.119.152-.244.292-.374.428-.13.13-.264.26-.411.378-.145.125-.292.238-.449.342-.151.108-.314.205-.476.296-.168.087-.335.168-.508.244-.173.071-.352.136-.53.195-.179.054-.357.097-.54.134-.184.039-.374.065-.558.087-.188.017-.372.028-.562.028-.136 0-.264-.005-.4-.017-.184-.011-.374-.033-.557-.065-.184-.033-.368-.076-.547-.125-.179-.048-.363-.108-.536-.179-.173-.065-.346-.14-.514-.227-.168-.086-.33-.179-.486-.281-.158-.102-.309-.21-.46-.324-.147-.119-.287-.244-.422-.374-.13-.13-.26-.264-.378-.411-.125-.145-.238-.292-.342-.449-.108-.151-.205-.314-.291-.476-.093-.168-.174-.335-.249-.508-.071-.173-.136-.352-.19-.53-.06-.179-.102-.357-.14-.546-.039-.179-.065-.368-.087-.552-.011-.119-.017-.233-.017-.346z"/>
 <path fill-opacity=".2" fill="#263238" d="m99 98.562l-18-18h-67.5a4.5 4.5 0 0 1 -.449 -.021 4.5 4.5 0 0 1 -.446 -.068 4.5 4.5 0 0 1 -.435 -.112 4.5 4.5 0 0 1 -.422 -.154 4.5 4.5 0 0 1 -.406 -.195 4.5 4.5 0 0 1 -.383 -.235 4.5 4.5 0 0 1 -.357 -.273 4.5 4.5 0 0 1 -.331 -.307 4.5 4.5 0 0 1 -.2964 -.338 4.5 4.5 0 0 1 -.2617 -.365 4.5 4.5 0 0 1 -.2227 -.390 4.5 4.5 0 0 1 -.1855 -.411 4.5 4.5 0 0 1 -.1406 -.427 4.5 4.5 0 0 1 -.0977 -.440 4.5 4.5 0 0 1 -.0547 -.445 4.5 4.5 0 0 1 -.0117 -.319v.438.562a4.5 4.5 0 0 0 .0117 .319 4.5 4.5 0 0 0 .0547 .445 4.5 4.5 0 0 0 .0977 .440 4.5 4.5 0 0 0 .1406 .427 4.5 4.5 0 0 0 .1855 .411 4.5 4.5 0 0 0 .2227 .390 4.5 4.5 0 0 0 .2617 .365 4.5 4.5 0 0 0 .2964 .338 4.5 4.5 0 0 0 .331 .307 4.5 4.5 0 0 0 .357 .273 4.5 4.5 0 0 0 .383 .235 4.5 4.5 0 0 0 .406 .195 4.5 4.5 0 0 0 .422 .154 4.5 4.5 0 0 0 .435 .112 4.5 4.5 0 0 0 .446 .068 4.5 4.5 0 0 0 .449 .021h67.5l18 18v-.562-.438z"/>
 <path fill-opacity=".2" fill="#fff" d="m13.5 17.438a4.5 4.5 0 0 0 -.318 .011 4.5 4.5 0 0 0 -.446 .055 4.5 4.5 0 0 0 -.439 .098 4.5 4.5 0 0 0 -.002 0 4.5 4.5 0 0 0 -.426 .140 4.5 4.5 0 0 0 -.410 .186 4.5 4.5 0 0 0 -.391 .222 4.5 4.5 0 0 0 -.365 .262 4.5 4.5 0 0 0 -.338 .297 4.5 4.5 0 0 0 -.306 .330 4.5 4.5 0 0 0 -.2738 .357 4.5 4.5 0 0 0 -.2344 .383 4.5 4.5 0 0 0 -.1953 .407 4.5 4.5 0 0 0 -.1543 .421 4.5 4.5 0 0 0 -.1114 .436 4.5 4.5 0 0 0 -.0683 .445 4.5 4.5 0 0 0 -.0215 .450v.562.438a4.5 4.5 0 0 1 .0215 -.450 4.5 4.5 0 0 0 0 -.002 4.5 4.5 0 0 1 .0683 -.443 4.5 4.5 0 0 1 .1114 -.436 4.5 4.5 0 0 1 .1543 -.421 4.5 4.5 0 0 0 0 -.002 4.5 4.5 0 0 1 .1953 -.405 4.5 4.5 0 0 1 .2344 -.383 4.5 4.5 0 0 1 .2738 -.357 4.5 4.5 0 0 0 0 -.002 4.5 4.5 0 0 1 .306 -.328 4.5 4.5 0 0 1 .338 -.297 4.5 4.5 0 0 1 .365 -.262 4.5 4.5 0 0 1 .391 -.222 4.5 4.5 0 0 1 .410 -.186 4.5 4.5 0 0 1 .426 -.140 4.5 4.5 0 0 0 .002 0 4.5 4.5 0 0 1 .439 -.098 4.5 4.5 0 0 1 .446 -.055 4.5 4.5 0 0 1 .318 -.011h81a4.5 4.5 0 0 1 .449 .021 4.5 4.5 0 0 1 .446 .068 4.5 4.5 0 0 1 .435 .112 4.5 4.5 0 0 1 .422 .154 4.5 4.5 0 0 1 .406 .195 4.5 4.5 0 0 1 .383 .235 4.5 4.5 0 0 1 .357 .273 4.5 4.5 0 0 1 .331 .307 4.5 4.5 0 0 1 .296 .338 4.5 4.5 0 0 1 .262 .365 4.5 4.5 0 0 1 .223 .390 4.5 4.5 0 0 1 .185 .411 4.5 4.5 0 0 1 .141 .425 4.5 4.5 0 0 0 0 .002 4.5 4.5 0 0 1 .098 .438 4.5 4.5 0 0 1 .054 .447 4.5 4.5 0 0 1 .012 .319v-.438-.562a4.5 4.5 0 0 0 -.012 -.319 4.5 4.5 0 0 0 -.054 -.447 4.5 4.5 0 0 0 -.098 -.438 4.5 4.5 0 0 0 0 -.002 4.5 4.5 0 0 0 -.141 -.425 4.5 4.5 0 0 0 -.185 -.411 4.5 4.5 0 0 0 -.223 -.390 4.5 4.5 0 0 0 -.262 -.365 4.5 4.5 0 0 0 -.296 -.338 4.5 4.5 0 0 0 -.331 -.307 4.5 4.5 0 0 0 -.357 -.273 4.5 4.5 0 0 0 -.383 -.235 4.5 4.5 0 0 0 -.406 -.195 4.5 4.5 0 0 0 -.422 -.154 4.5 4.5 0 0 0 -.435 -.112 4.5 4.5 0 0 0 -.446 -.068 4.5 4.5 0 0 0 -.449 -.021h-81z"/>
</svg>
